<svg xmlns="http://www.w3.org/2000/svg">
<symbol id="1">
<path d="M6.33 7.62V13.91H17.346V18.33H6.33V27H0.822V3.2H18.808V7.62H6.33ZM40.126 8.708V27H35.094V24.824C34.3913 25.6173 33.5527 26.2293 32.578 26.66C31.6033 27.068 30.5493 27.272 29.416 27.272C27.0133 27.272 25.1093 26.5807 23.704 25.198C22.2987 23.8153 21.596 21.764 21.596 19.044V8.708H26.9V18.262C26.9 21.2087 28.1353 22.682 30.606 22.682C31.8753 22.682 32.8953 22.274 33.666 21.458C34.4367 20.6193 34.822 19.384 34.822 17.752V8.708H40.126ZM50.1058 11.122C50.7405 10.238 51.5905 9.56933 52.6558 9.116C53.7438 8.66267 54.9905 8.436 56.3958 8.436V13.332C55.8065 13.2867 55.4098 13.264 55.2058 13.264C53.6871 13.264 52.4971 13.6947 51.6358 14.556C50.7745 15.3947 50.3438 16.664 50.3438 18.364V27H45.0398V8.708H50.1058V11.122ZM70.6676 8.436C72.9342 8.436 74.7589 9.116 76.1416 10.476C77.5469 11.836 78.2496 13.8533 78.2496 16.528V27H72.9456V17.344C72.9456 15.8933 72.6282 14.8167 71.9936 14.114C71.3589 13.3887 70.4409 13.026 69.2396 13.026C67.9022 13.026 66.8369 13.4453 66.0436 14.284C65.2502 15.1 64.8536 16.324 64.8536 17.956V27H59.5496V8.708H64.6156V10.85C65.3182 10.0793 66.1909 9.49 67.2336 9.082C68.2762 8.65133 69.4209 8.436 70.6676 8.436ZM83.0574 8.708H88.3614V27H83.0574V8.708ZM85.7094 6.158C84.7347 6.158 83.9414 5.87467 83.3294 5.308C82.7174 4.74133 82.4114 4.03867 82.4114 3.2C82.4114 2.36133 82.7174 1.65867 83.3294 1.092C83.9414 0.525332 84.7347 0.241998 85.7094 0.241998C86.684 0.241998 87.4774 0.513999 88.0894 1.058C88.7014 1.602 89.0074 2.282 89.0074 3.098C89.0074 3.982 88.7014 4.71867 88.0894 5.308C87.4774 5.87467 86.684 6.158 85.7094 6.158ZM105.082 26.116C104.561 26.5013 103.915 26.796 103.144 27C102.396 27.1813 101.603 27.272 100.764 27.272C98.5879 27.272 96.8993 26.7167 95.6979 25.606C94.5193 24.4953 93.9299 22.8633 93.9299 20.71V13.196H91.1079V9.116H93.9299V4.662H99.2339V9.116H103.79V13.196H99.2339V20.642C99.2339 21.4127 99.4266 22.0133 99.8119 22.444C100.22 22.852 100.787 23.056 101.512 23.056C102.351 23.056 103.065 22.8293 103.654 22.376L105.082 26.116ZM126.487 8.708V27H121.455V24.824C120.753 25.6173 119.914 26.2293 118.939 26.66C117.965 27.068 116.911 27.272 115.777 27.272C113.375 27.272 111.471 26.5807 110.065 25.198C108.66 23.8153 107.957 21.764 107.957 19.044V8.708H113.261V18.262C113.261 21.2087 114.497 22.682 116.967 22.682C118.237 22.682 119.257 22.274 120.027 21.458C120.798 20.6193 121.183 19.384 121.183 17.752V8.708H126.487ZM136.467 11.122C137.102 10.238 137.952 9.56933 139.017 9.116C140.105 8.66267 141.352 8.436 142.757 8.436V13.332C142.168 13.2867 141.771 13.264 141.567 13.264C140.048 13.264 138.858 13.6947 137.997 14.556C137.136 15.3947 136.705 16.664 136.705 18.364V27H131.401V8.708H136.467V11.122ZM163.663 17.922C163.663 17.99 163.629 18.466 163.561 19.35H149.723C149.972 20.4833 150.562 21.3787 151.491 22.036C152.42 22.6933 153.576 23.022 154.959 23.022C155.911 23.022 156.75 22.886 157.475 22.614C158.223 22.3193 158.914 21.866 159.549 21.254L162.371 24.314C160.648 26.286 158.132 27.272 154.823 27.272C152.76 27.272 150.936 26.8753 149.349 26.082C147.762 25.266 146.538 24.144 145.677 22.716C144.816 21.288 144.385 19.6673 144.385 17.854C144.385 16.0633 144.804 14.454 145.643 13.026C146.504 11.5753 147.672 10.4533 149.145 9.66C150.641 8.844 152.307 8.436 154.143 8.436C155.934 8.436 157.554 8.82133 159.005 9.592C160.456 10.3627 161.589 11.4733 162.405 12.924C163.244 14.352 163.663 16.018 163.663 17.922ZM154.177 12.448C152.976 12.448 151.967 12.788 151.151 13.468C150.335 14.148 149.836 15.0773 149.655 16.256H158.665C158.484 15.1 157.985 14.182 157.169 13.502C156.353 12.7993 155.356 12.448 154.177 12.448Z" fill="#054C73"/>
</symbol>

<symbol id="2">
<path d="M3.038 20.3621H2.22852C0.997617 20.3621 0 21.36 0 22.5906C0 23.8212 0.997617 24.8191 2.22852 24.8191H3.038C4.26828 24.8191 5.26657 23.8212 5.26657 22.5906C5.26657 21.36 4.26859 20.3621 3.038 20.3621Z" fill="#111111"/>
<path d="M21.5707 24.8191C22.8013 24.8191 23.7995 23.8212 23.7995 22.5906C23.7995 21.36 22.8013 20.3621 21.5707 20.3621H9.20313C7.97286 20.3621 6.97461 21.36 6.97461 22.5906C6.97461 23.8212 7.97286 24.8191 9.20313 24.8191H21.5707Z" fill="#111111"/>
<path d="M10.5781 16.5465H11.3784C12.6096 16.5465 13.6069 15.5486 13.6069 14.3183C13.6069 13.0871 12.6096 12.0895 11.3784 12.0895H10.5781C9.34723 12.0895 8.34961 13.0874 8.34961 14.3183C8.34961 15.5486 9.34723 16.5465 10.5781 16.5465Z" fill="#111111"/>
<path d="M24.0084 12.0895H17.5443C16.3131 12.0895 15.3154 13.0874 15.3154 14.3183C15.3154 15.5489 16.3131 16.5465 17.5443 16.5465H24.0084C25.2393 16.5465 26.2369 15.5486 26.2369 14.3183C26.2369 13.0871 25.2393 12.0895 24.0084 12.0895Z" fill="#111111"/>
<path d="M11.3883 28.6357H10.5781C9.34723 28.6357 8.34961 29.6337 8.34961 30.8646C8.34961 32.0952 9.34723 33.0928 10.5781 33.0928H11.3883C12.6192 33.0928 13.6168 32.0949 13.6168 30.8646C13.6168 29.6337 12.6192 28.6357 11.3883 28.6357Z" fill="#111111"/>
<path d="M24.0083 28.6357H17.5538C16.3229 28.6357 15.3252 29.6337 15.3252 30.8646C15.3252 32.0952 16.3229 33.0928 17.5538 33.0928H24.0083C25.2392 33.0928 26.2368 32.0949 26.2368 30.8646C26.2368 29.6337 25.2392 28.6357 24.0083 28.6357Z" fill="#111111"/>
<path d="M83.3369 24.5136L72.6408 12.8147C72.219 12.3526 71.6215 12.0895 70.9957 12.0895H58.3498V2.61916C58.3498 1.38825 57.3522 0.390625 56.1212 0.390625H15.5083C14.2774 0.390625 13.2798 1.38857 13.2798 2.61916C13.2798 3.84975 14.2774 4.84769 15.5083 4.84769H53.8924V40.3352H34.6721C33.7094 37.1014 30.7114 34.7362 27.1697 34.7362C23.6279 34.7362 20.6293 37.1014 19.6676 40.3352H15.5083C14.2774 40.3352 13.2798 41.3328 13.2798 42.5634C13.2798 43.7946 14.2774 44.792 15.5083 44.792H19.6676C20.6293 48.0251 23.6279 50.3906 27.1697 50.3906C30.7114 50.3906 33.7094 48.0251 34.6721 44.792H56.1209H61.4037C62.3664 48.0251 65.365 50.3906 68.9061 50.3906C72.4485 50.3906 75.4465 48.0251 76.4088 44.792H81.6919C82.9228 44.792 83.9204 43.7943 83.9204 42.5634V26.0172C83.9211 25.4613 83.7122 24.9245 83.3369 24.5136ZM27.1697 45.9342C25.3114 45.9342 23.7995 44.4223 23.7995 42.5637C23.7995 40.7054 25.3114 39.1933 27.1697 39.1933C29.028 39.1933 30.5398 40.7058 30.5398 42.5637C30.5401 44.4223 29.028 45.9342 27.1697 45.9342ZM68.9064 45.9342C67.0481 45.9342 65.5363 44.4223 65.5363 42.5637C65.5363 40.7054 67.0485 39.1933 68.9064 39.1933C70.7653 39.1933 72.2772 40.7058 72.2772 42.5637C72.2775 44.4223 70.7653 45.9342 68.9064 45.9342ZM76.4094 40.3355C75.4471 37.1017 72.4491 34.7365 68.9067 34.7365C65.3653 34.7365 62.367 37.1017 61.4043 40.3355H58.3501V16.5469H70.0143L76.6354 23.789H64.012C62.7817 23.789 61.7841 24.7869 61.7841 26.0175C61.7841 27.2487 62.7817 28.2461 64.012 28.2461H79.464V40.3352H76.4094V40.3355Z" fill="#111111"/>
</symbol>

<symbol id="3">
<path d="M17.2233 32.6246H27.413C28.2923 32.6246 29.005 31.9119 29.005 31.0331C29.005 30.1538 28.2921 29.4406 27.413 29.4406H21.0663L27.0219 23.4854C28.3005 22.2067 29.005 20.5067 29.005 18.6981C29.005 16.8898 28.3005 15.1898 27.0219 13.9111C25.7434 12.6323 24.0432 11.9282 22.2349 11.9282C20.4263 11.9282 18.7263 12.6325 17.4479 13.9111C16.826 14.5325 16.826 15.5408 17.4479 16.1626C18.0697 16.784 19.0775 16.784 19.6994 16.1622C20.3764 15.4849 21.2772 15.1121 22.2349 15.1121C23.1927 15.1121 24.0934 15.4849 24.7706 16.1626C25.4481 16.8394 25.8209 17.74 25.8209 18.6981C25.8209 19.656 25.4481 20.5566 24.7706 21.2339L16.0972 29.9074C15.6418 30.3624 15.5058 31.0474 15.7519 31.6424C15.9987 32.237 16.5792 32.6246 17.2233 32.6246Z" fill="#111111"/>
<path d="M42.7248 29.4413H41.372V26.2436C41.372 25.3647 40.6593 24.6516 39.78 24.6516C38.9007 24.6516 38.1883 25.3647 38.1883 26.2436V29.4413H34.3759L41.2323 14.1727C41.5924 13.3708 41.2341 12.4284 40.432 12.0683C39.6299 11.7082 38.6877 12.0663 38.3277 12.8682L30.4635 30.3812C30.2423 30.8737 30.2857 31.4449 30.579 31.8985C30.8726 32.3517 31.3755 32.625 31.9156 32.625H38.188V35.8232C38.188 36.7021 38.9005 37.4154 39.7798 37.4154C40.6593 37.4154 41.3717 36.7021 41.3717 35.8232V32.625H42.7246C43.6039 32.625 44.3168 31.9124 44.3168 31.0335C44.317 30.1542 43.6039 29.4413 42.7248 29.4413Z" fill="#333333"/>
<path d="M59.7354 23.8765C59.4511 23.384 58.9253 23.0803 58.3568 23.0803H54.5938C54.2146 17.0898 51.7023 11.5095 47.4195 7.22723C42.7596 2.56738 36.5641 0.0012207 29.9743 0.0012207C29.095 0.0012207 28.3823 0.713875 28.3823 1.59295C28.3823 2.47247 29.0952 3.18489 29.9743 3.18489C41.2871 3.18489 50.5855 11.9727 51.4028 23.0805H47.751C47.182 23.0805 46.6567 23.3843 46.3724 23.8767C46.0877 24.3694 46.0877 24.9762 46.3724 25.4689L51.675 34.6537C51.9597 35.1464 52.4851 35.4495 53.0536 35.4495C53.6225 35.4495 54.1481 35.1464 54.4323 34.6537L59.7351 25.4689C60.0194 24.976 60.0194 24.3691 59.7354 23.8765ZM53.0536 30.6732L50.5083 26.2642H55.5995L53.0536 30.6732Z" fill="#111111"/>
<path d="M25.007 3.18437C25.4256 3.18437 25.8363 3.01366 26.1326 2.71739C26.4287 2.42134 26.5992 2.01062 26.5992 1.5922C26.5992 1.17241 26.4289 0.762617 26.1326 0.466565C25.8366 0.169379 25.4256 0 25.007 0C24.5874 0 24.1776 0.169379 23.8809 0.466565C23.5848 0.762617 23.415 1.17332 23.415 1.5922C23.415 2.01062 23.5848 2.42134 23.8809 2.71739C24.1776 3.01366 24.5874 3.18437 25.007 3.18437Z" fill="#111111"/>
<path d="M20.2313 3.18437C20.6498 3.18437 21.0607 3.01366 21.3567 2.71739C21.6539 2.42134 21.8233 2.01062 21.8233 1.5922C21.8233 1.17241 21.6539 0.762617 21.3567 0.466565C21.0607 0.169379 20.6498 0 20.2313 0C19.8127 0 19.402 0.169379 19.1057 0.466565C18.8085 0.762617 18.6392 1.17241 18.6392 1.5922C18.6392 2.01062 18.8085 2.42134 19.1057 2.71739C19.4018 3.01366 19.8127 3.18437 20.2313 3.18437Z" fill="#111111"/>
<path d="M29.9745 46.1589C24.2347 46.1589 18.839 43.9238 14.7803 39.8656C11.0994 36.1847 8.91854 31.4031 8.54485 26.2633H12.1976C12.198 26.2633 12.1985 26.2633 12.199 26.2633C13.0783 26.2633 13.7909 25.5507 13.7909 24.6714C13.7909 24.3563 13.6992 24.062 13.5409 23.815L8.2731 14.6908C7.98908 14.1983 7.46326 13.895 6.89455 13.895C6.32583 13.895 5.80024 14.1983 5.516 14.6908L0.213184 23.8756C-0.0710614 24.3683 -0.0710614 24.9751 0.213184 25.4678C0.49743 25.9605 1.02302 26.2636 1.59173 26.2636H5.35458C5.73417 32.2547 8.2463 37.8343 12.5288 42.1168C17.1887 46.7771 23.3842 49.3431 29.9743 49.3431C30.8536 49.3431 31.566 48.6304 31.566 47.7509C31.5662 46.872 30.8538 46.1589 29.9745 46.1589ZM6.89477 18.6707L9.44027 23.0794H4.34928L6.89477 18.6707Z" fill="#111111"/>
<path d="M34.9416 46.1584C34.5229 46.1584 34.1122 46.3292 33.8159 46.6248C33.5199 46.921 33.3496 47.3317 33.3496 47.7504C33.3496 48.17 33.5199 48.58 33.8159 48.8762C34.112 49.173 34.5229 49.3426 34.9416 49.3426C35.3611 49.3426 35.7709 49.173 36.0679 48.8762C36.3639 48.58 36.5333 48.1695 36.5333 47.7504C36.5333 47.3317 36.3639 46.921 36.0679 46.6248C35.7709 46.3292 35.3611 46.1584 34.9416 46.1584Z" fill="#111111"/>
<path d="M39.7174 46.1584C39.2979 46.1584 38.8879 46.3292 38.5918 46.6248C38.2949 46.921 38.1255 47.3317 38.1255 47.7504C38.1255 48.1695 38.2951 48.58 38.5918 48.8762C38.8879 49.173 39.2979 49.3426 39.7174 49.3426C40.1361 49.3426 40.547 49.173 40.8428 48.8762C41.1389 48.58 41.3096 48.1695 41.3096 47.7504C41.3096 47.3317 41.1391 46.921 40.8428 46.6248C40.547 46.3292 40.1359 46.1584 39.7174 46.1584Z" fill="#111111"/>
</symbol>

<symbol id="4" >
</symbol>

<symbol id="5">

</symbol>

<symbol id="6">
</symbol>
</svg>